<?xml version="1.0" encoding="UTF-8" standalone="no"?>
<!DOCTYPE svg PUBLIC "-//W3C//DTD SVG 1.1//EN" "http://www.w3.org/Graphics/SVG/1.1/DTD/svg11.dtd">
<svg xmlns="http://www.w3.org/2000/svg" version="1.1" viewBox="0 0 1024 1024">
<path fill="rgb(255,255,255)" fill-opacity="1.000" d="M 832.50 106.50 Q 863.84 114.42 870.00 146.25 Q 871.46 153.81 871.44 164.50 Q 871.25 260.00 871.25 356.11 A 3.26 3.22 26.0 0 0 871.96 358.13 Q 874.51 361.34 877.11 363.89 Q 927.76 413.62 978.31 463.44 Q 984.88 469.58 993.19 479.56 Q 1000.27 488.06 1002.75 497.75 Q 1004.81 505.77 1005.05 512.73 Q 1005.31 519.89 1002.97 527.55 Q 998.32 542.77 986.56 554.56 Q 929.83 611.46 872.30 667.58 A 3.48 3.46 68.0 0 0 871.25 670.07 Q 871.25 736.75 871.29 804.00 Q 871.29 809.43 870.49 814.79 Q 866.62 840.77 843.44 851.94 Q 835.52 855.75 826.00 855.75 Q 737.37 855.75 650.01 855.75 Q 647.88 855.75 645.99 856.72 Q 616.84 871.69 587.88 886.57 Q 568.83 896.37 550.19 906.94 Q 540.41 911.60 526.56 915.81 Q 515.61 919.14 505.50 917.75 Q 497.16 916.60 487.38 912.73 Q 481.88 910.54 470.53 904.57 Q 429.88 883.18 388.93 862.40 Q 383.90 859.84 377.61 856.06 A 2.22 2.19 -29.2 0 0 376.48 855.75 Q 289.12 855.75 202.25 855.75 Q 192.79 855.75 183.93 852.53 Q 174.97 849.26 168.44 842.87 Q 159.41 834.04 156.16 821.64 Q 154.76 816.29 154.71 806.23 Q 153.99 681.18 154.50 674.25 Q 154.75 670.78 153.25 668.46 Q 153.00 668.08 149.30 664.48 Q 96.74 613.28 44.44 561.81 Q 33.39 551.56 28.06 543.44 Q 21.47 533.40 19.25 520.50 Q 17.31 509.22 20.24 499.13 Q 23.62 487.47 31.51 478.27 Q 38.30 470.33 45.81 463.06 Q 136.95 374.81 146.69 364.44 Q 151.64 359.17 153.69 355.19 Q 154.88 352.88 154.79 349.21 Q 154.75 347.37 154.75 347.28 Q 154.75 189.25 154.75 189.25 Q 154.17 167.12 154.75 145.00 Q 154.79 143.35 157.42 136.79 Q 159.34 131.99 161.08 129.02 Q 170.58 112.75 189.32 107.35 Q 192.71 106.37 196.24 106.46 Q 198.18 106.50 198.26 106.50 Q 832.50 106.50 832.50 106.50 Z M 562.96 297.65 Q 552.20 321.14 542.36 344.98 Q 500.47 446.44 457.60 547.48 Q 453.88 556.24 449.67 565.84 Q 412.62 650.24 376.75 735.14 Q 376.10 736.68 375.68 737.77 A 0.73 0.72 10.3 0 0 376.36 738.75 L 457.69 738.75 A 1.38 1.37 12.4 0 0 458.94 737.96 Q 465.01 725.15 470.40 712.67 Q 520.18 597.24 569.25 481.50 Q 580.27 454.46 591.94 427.69 Q 597.44 415.07 643.26 307.51 Q 645.36 302.58 648.12 297.21 A 0.32 0.31 13.7 0 0 647.84 296.75 L 564.35 296.75 A 1.54 1.52 -77.6 0 0 562.96 297.65 Z M 263.26 596.19 Q 263.60 596.50 264.19 596.81 Q 289.47 610.20 339.44 637.31 Q 343.96 639.76 345.97 640.52 A 0.55 0.53 -66.5 0 0 346.65 640.24 Q 362.26 607.81 379.44 576.18 A 0.96 0.95 -70.1 0 0 378.79 574.78 Q 376.62 574.37 374.56 573.19 Q 347.16 558.83 319.98 544.04 Q 292.67 529.18 264.50 514.74 Q 262.83 513.89 264.46 512.95 Q 271.28 509.05 277.54 506.01 Q 299.67 495.26 321.31 483.56 Q 345.35 470.89 369.33 458.10 Q 373.47 455.90 378.22 453.79 A 1.10 1.09 65.0 0 0 378.76 452.30 Q 369.41 432.99 359.69 414.56 Q 355.07 405.81 346.40 387.27 A 0.48 0.48 -26.3 0 0 345.74 387.05 Q 266.84 429.64 188.25 472.81 Q 180.36 477.14 172.19 480.94 Q 169.53 482.45 167.54 484.34 A 1.76 1.76 68.1 0 0 167.00 485.61 L 167.00 542.81 A 2.82 2.82 16.2 0 0 168.31 545.19 Q 174.76 549.24 181.75 552.25 Q 199.81 562.47 218.25 572.00 Q 240.13 584.24 262.50 595.59 Q 262.72 595.70 263.26 596.19 Z M 761.33 513.63 Q 762.39 514.18 761.31 514.70 Q 734.24 527.73 708.65 541.81 Q 678.79 558.23 647.19 574.98 Q 645.33 575.97 646.30 577.83 L 678.83 640.24 A 0.61 0.60 -22.0 0 0 679.55 640.54 Q 681.77 639.81 683.76 638.60 Q 686.90 636.70 686.95 636.68 Q 771.98 590.53 857.58 545.11 A 1.48 1.46 79.5 0 0 858.35 543.98 Q 858.90 539.39 858.81 536.00 Q 858.17 510.75 858.74 485.50 A 1.56 1.33 -66.2 0 0 858.47 484.60 Q 856.68 482.13 853.79 480.99 Q 850.71 479.78 847.79 478.23 Q 764.47 433.92 680.22 387.66 A 1.42 1.42 -62.3 0 0 678.27 388.27 L 646.49 451.71 A 1.06 1.05 -62.8 0 0 646.94 453.12 L 761.33 513.63 Z"/>
</svg>